<svg data-v-fde0c5aa="" xmlns="http://www.w3.org/2000/svg" viewBox="0 0 300 300" class="iconAbove"><!----><defs data-v-fde0c5aa=""><!----></defs><rect data-v-fde0c5aa="" fill="#0B345A" x="0" y="0" width="300px" height="300px" class="logo-background-square"></rect><defs data-v-fde0c5aa=""><!----></defs><g data-v-fde0c5aa="" id="26932742-e1cf-49ee-9300-751338afc4f5" fill="#22C4D6" transform="matrix(3.651685158481909,0,0,3.651685158481909,18.466292172493528,178.42696479934745)"><path d="M0.42 9.38C0.42 10.48 0.71 11.32 1.30 11.89C1.89 12.46 2.59 12.74 3.40 12.74C4.40 12.74 5.13 12.35 5.60 11.56L5.60 12.60L8.33 12.60L8.33 1.68L5.60 1.68L5.60 7.20C5.13 6.41 4.40 6.02 3.40 6.02C2.59 6.02 1.89 6.30 1.30 6.87C0.71 7.44 0.42 8.28 0.42 9.38ZM3.30 9.38C3.30 9.03 3.41 8.76 3.63 8.56C3.85 8.36 4.13 8.26 4.45 8.26C4.76 8.26 5.03 8.36 5.26 8.55C5.49 8.74 5.60 9.02 5.60 9.38C5.60 9.74 5.49 10.02 5.26 10.21C5.03 10.40 4.76 10.50 4.45 10.50C4.13 10.50 3.85 10.40 3.63 10.20C3.41 10.00 3.30 9.73 3.30 9.38ZM14.17 8.41L12.28 8.41C12.41 7.84 12.74 7.56 13.27 7.56C13.78 7.56 14.07 7.84 14.17 8.41ZM12.24 9.94L17.05 9.94C17.07 9.76 17.08 9.53 17.08 9.25C17.08 8.23 16.75 7.42 16.09 6.83C15.43 6.24 14.52 5.95 13.34 5.95C12.15 5.95 11.20 6.27 10.50 6.92C9.80 7.56 9.45 8.38 9.45 9.38C9.45 10.39 9.78 11.20 10.45 11.82C11.12 12.43 12.08 12.74 13.34 12.74C14.31 12.74 15.12 12.56 15.78 12.21C16.43 11.85 16.88 11.34 17.14 10.68L14.66 10.29C14.59 10.54 14.45 10.71 14.24 10.79C14.02 10.88 13.72 10.92 13.34 10.92C12.72 10.92 12.35 10.59 12.24 9.94ZM17.49 6.16L21.62 13.23L25.75 6.16L22.88 6.16L21.62 8.90L20.36 6.16ZM30.81 8.41L28.92 8.41C29.05 7.84 29.39 7.56 29.92 7.56C30.42 7.56 30.72 7.84 30.81 8.41ZM28.88 9.94L33.70 9.94C33.72 9.76 33.73 9.53 33.73 9.25C33.73 8.23 33.40 7.42 32.74 6.83C32.08 6.24 31.16 5.95 29.99 5.95C28.79 5.95 27.85 6.27 27.15 6.92C26.45 7.56 26.10 8.38 26.10 9.38C26.10 10.39 26.43 11.20 27.10 11.82C27.76 12.43 28.73 12.74 29.99 12.74C30.96 12.74 31.77 12.56 32.42 12.21C33.08 11.85 33.53 11.34 33.78 10.68L31.30 10.29C31.24 10.54 31.10 10.71 30.88 10.79C30.67 10.88 30.37 10.92 29.99 10.92C29.36 10.92 28.99 10.59 28.88 9.94ZM34.90 1.68L34.90 12.60L37.63 12.60L37.63 1.68ZM38.75 9.38C38.75 10.45 39.13 11.29 39.89 11.90C40.65 12.51 41.62 12.81 42.78 12.81C43.95 12.81 44.91 12.51 45.67 11.90C46.44 11.29 46.82 10.45 46.82 9.38C46.82 8.31 46.44 7.47 45.67 6.86C44.91 6.25 43.95 5.95 42.78 5.95C41.62 5.95 40.65 6.25 39.89 6.86C39.13 7.47 38.75 8.31 38.75 9.38ZM41.57 9.38C41.57 8.97 41.67 8.63 41.87 8.37C42.08 8.11 42.38 7.98 42.78 7.98C43.19 7.98 43.49 8.11 43.69 8.37C43.90 8.63 44.00 8.97 44.00 9.38C44.00 9.79 43.90 10.13 43.69 10.39C43.49 10.65 43.19 10.78 42.78 10.78C42.38 10.78 42.08 10.65 41.87 10.39C41.67 10.13 41.57 9.79 41.57 9.38ZM55.85 9.38C55.85 8.28 55.55 7.44 54.96 6.87C54.38 6.30 53.68 6.02 52.86 6.02C51.87 6.02 51.13 6.41 50.67 7.20L50.67 6.16L47.94 6.16L47.94 15.68L50.67 15.68L50.67 11.56C51.13 12.35 51.87 12.74 52.86 12.74C53.68 12.74 54.38 12.46 54.96 11.89C55.55 11.32 55.85 10.48 55.85 9.38ZM52.96 9.38C52.96 9.73 52.85 10.00 52.63 10.20C52.41 10.40 52.14 10.50 51.81 10.50C51.51 10.50 51.24 10.40 51.01 10.21C50.78 10.02 50.67 9.74 50.67 9.38C50.67 9.02 50.78 8.74 51.01 8.55C51.24 8.36 51.51 8.26 51.81 8.26C52.14 8.26 52.41 8.36 52.63 8.56C52.85 8.76 52.96 9.03 52.96 9.38ZM61.40 8.41L59.51 8.41C59.64 7.84 59.98 7.56 60.51 7.56C61.01 7.56 61.31 7.84 61.40 8.41ZM59.47 9.94L64.29 9.94C64.31 9.76 64.32 9.53 64.32 9.25C64.32 8.23 63.99 7.42 63.33 6.83C62.67 6.24 61.75 5.95 60.58 5.95C59.38 5.95 58.44 6.27 57.74 6.92C57.04 7.56 56.69 8.38 56.69 9.38C56.69 10.39 57.02 11.20 57.69 11.82C58.35 12.43 59.32 12.74 60.58 12.74C61.55 12.74 62.36 12.56 63.01 12.21C63.67 11.85 64.12 11.34 64.37 10.68L61.89 10.29C61.83 10.54 61.69 10.71 61.47 10.79C61.26 10.88 60.96 10.92 60.58 10.92C59.95 10.92 59.58 10.59 59.47 9.94ZM70.52 8.93L71.62 6.58C71.28 6.16 70.76 5.95 70.07 5.95C69.29 5.95 68.65 6.30 68.15 7.01L68.15 6.16L65.49 6.16L65.49 12.60L68.15 12.60L68.15 9.66C68.15 9.22 68.26 8.91 68.48 8.74C68.70 8.56 69.02 8.47 69.44 8.47C69.90 8.47 70.26 8.62 70.52 8.93Z"></path></g><defs data-v-fde0c5aa=""><!----></defs><g data-v-fde0c5aa="" id="1b8a2b30-e0bc-4571-af81-c62a989226b7" stroke="none" fill="#22C4D6" transform="matrix(5.4572579048040595,0,0,5.4572579048040595,62.68387352313505,28.122077413761687)"><path d="M16 19.586l7.496-12.954H8.504zM7.496 12.414L0 25.368h14.992zM24.504 12.414l-7.496 12.954H32z"></path></g><!----></svg>