<svg xmlns="http://www.w3.org/2000/svg" xmlns:xlink="http://www.w3.org/1999/xlink" version="1.1" width="1280" height="720" viewBox="0 0 1280 720" xml:space="preserve">
<desc>Created with Fabric.js 3.5.0</desc>
<defs>
</defs>
<rect x="0" y="0" width="100%" height="100%" fill="rgba(255,255,255,0)"/>
<g transform="matrix(1 0 0 1 640 360)" style="" id="637871">
		
<path xml:space="preserve" font-family="Roboto" font-size="130" font-weight="bold" style="stroke: none; stroke-width: 0; stroke-dasharray: none; stroke-linecap: butt; stroke-dashoffset: 0; stroke-linejoin: miter; stroke-miterlimit: 4; is-custom-font: none; font-file-url: none; fill: rgb(255,255,255); fill-rule: nonzero; opacity: 1; white-space: pre;" d="M-23.17 40.84L-40.50 7.01L-55.67 7.01L-55.67 40.84L-74.71 40.84L-74.71-51.58L-40.37-51.58Q-23.99-51.58-15.11-44.28Q-6.22-36.98-6.22-23.65L-6.22-23.65Q-6.22-14.20-10.31-7.88Q-14.41-1.56-22.72 2.18L-22.72 2.18L-2.73 39.95L-2.73 40.84L-23.17 40.84ZM-55.67-36.16L-55.67-8.42L-40.31-8.42Q-33.13-8.42-29.20-12.07Q-25.26-15.72-25.26-22.13L-25.26-22.13Q-25.26-28.67-28.98-32.41Q-32.69-36.16-40.37-36.16L-40.37-36.16L-55.67-36.16ZM44.18 40.84L8.25 40.84L8.25-51.58L40.62-51.58Q57.45-51.58 66.14-45.14Q74.84-38.70 74.84-26.26L74.84-26.26Q74.84-19.46 71.35-14.29Q67.86-9.12 61.64-6.71L61.64-6.71Q68.75-4.93 72.84 0.47Q76.93 5.86 76.93 13.67L76.93 13.67Q76.93 27.00 68.43 33.86Q59.92 40.71 44.18 40.84L44.18 40.84ZM44.75 0.59L27.29 0.59L27.29 25.54L43.61 25.54Q50.34 25.54 54.11 22.33Q57.89 19.13 57.89 13.48L57.89 13.48Q57.89 0.78 44.75 0.59L44.75 0.59ZM27.29-36.16L27.29-12.86L41.39-12.86Q55.80-13.12 55.80-24.35L55.80-24.35Q55.80-30.64 52.15-33.40Q48.50-36.16 40.62-36.16L40.62-36.16L27.29-36.16Z"/></g>
<g transform="matrix(1 0 0 1 640 418.195)" style="" id="126865">
		
<path xml:space="preserve" font-family="Roboto" font-size="27" font-weight="bold" style="stroke: none; stroke-width: 0; stroke-dasharray: none; stroke-linecap: butt; stroke-dashoffset: 0; stroke-linejoin: miter; stroke-miterlimit: 4; is-custom-font: none; font-file-url: none; fill: rgb(255,255,255); fill-rule: nonzero; opacity: 1; white-space: pre;" d="M-110.83-2.55L-110.83 0.64L-118.42 0.64L-118.42 8.48L-122.38 8.48L-122.38-10.71L-109.88-10.71L-109.88-7.51L-118.42-7.51L-118.42-2.55L-110.83-2.55ZM-99.48 8.48L-99.58 7.03Q-100.99 8.75-103.48 8.75L-103.48 8.75Q-105.78 8.75-106.98 7.43Q-108.19 6.11-108.22 3.56L-108.22 3.56L-108.22-5.78L-104.41-5.78L-104.41 3.43Q-104.41 5.66-102.38 5.66L-102.38 5.66Q-100.44 5.66-99.71 4.32L-99.71 4.32L-99.71-5.78L-95.89-5.78L-95.89 8.48L-99.48 8.48ZM-89.00-11.77L-89.00 8.48L-92.82 8.48L-92.82-11.77L-89.00-11.77ZM-81.84-11.77L-81.84 8.48L-85.66 8.48L-85.66-11.77L-81.84-11.77ZM-61.77 3.45L-61.77 3.45Q-61.77 2.33-62.56 1.73Q-63.35 1.13-65.41 0.46Q-67.47-0.21-68.67-0.85L-68.67-0.85Q-71.94-2.62-71.94-5.61L-71.94-5.61Q-71.94-7.17-71.06-8.39Q-70.18-9.61-68.54-10.29Q-66.90-10.98-64.86-10.98L-64.86-10.98Q-62.80-10.98-61.19-10.23Q-59.58-9.49-58.69-8.13Q-57.80-6.77-57.80-5.04L-57.80-5.04L-61.76-5.04Q-61.76-6.36-62.59-7.09Q-63.42-7.83-64.92-7.83L-64.92-7.83Q-66.37-7.83-67.18-7.21Q-67.98-6.60-67.98-5.60L-67.98-5.60Q-67.98-4.66-67.04-4.03Q-66.10-3.40-64.26-2.84L-64.26-2.84Q-60.89-1.83-59.35-0.32Q-57.80 1.18-57.80 3.42L-57.80 3.42Q-57.80 5.91-59.69 7.33Q-61.57 8.75-64.76 8.75L-64.76 8.75Q-66.98 8.75-68.80 7.93Q-70.62 7.12-71.57 5.71Q-72.53 4.30-72.53 2.44L-72.53 2.44L-68.56 2.44Q-68.56 5.62-64.76 5.62L-64.76 5.62Q-63.35 5.62-62.56 5.05Q-61.77 4.47-61.77 3.45ZM-54.63-9.29L-50.82-9.29L-50.82-5.78L-48.38-5.78L-48.38-2.99L-50.82-2.99L-50.82 4.13Q-50.82 4.92-50.51 5.27Q-50.21 5.61-49.35 5.61L-49.35 5.61Q-48.72 5.61-48.23 5.52L-48.23 5.52L-48.23 8.40Q-49.35 8.75-50.54 8.75L-50.54 8.75Q-54.55 8.75-54.63 4.70L-54.63 4.70L-54.63-2.99L-56.71-2.99L-56.71-5.78L-54.63-5.78L-54.63-9.29ZM-34.14 8.48L-37.99 8.48Q-38.25 7.97-38.37 7.20L-38.37 7.20Q-39.76 8.75-41.97 8.75L-41.97 8.75Q-44.07 8.75-45.44 7.53Q-46.82 6.32-46.82 4.47L-46.82 4.47Q-46.82 2.21-45.14 0.99Q-43.46-0.22-40.28-0.23L-40.28-0.23L-38.53-0.23L-38.53-1.05Q-38.53-2.04-39.04-2.63Q-39.54-3.23-40.64-3.23L-40.64-3.23Q-41.60-3.23-42.15-2.76Q-42.70-2.30-42.70-1.50L-42.70-1.50L-46.51-1.50Q-46.51-2.74-45.74-3.79Q-44.98-4.85-43.58-5.45Q-42.18-6.05-40.44-6.05L-40.44-6.05Q-37.80-6.05-36.25-4.72Q-34.71-3.40-34.71-1.00L-34.71-1.00L-34.71 5.19Q-34.69 7.22-34.14 8.26L-34.14 8.26L-34.14 8.48ZM-41.14 5.83L-41.14 5.83Q-40.30 5.83-39.58 5.46Q-38.87 5.08-38.53 4.45L-38.53 4.45L-38.53 2.00L-39.95 2.00Q-42.81 2.00-43.00 3.97L-43.00 3.97L-43.01 4.20Q-43.01 4.91-42.51 5.37Q-42.01 5.83-41.14 5.83ZM-25.85 5.67L-25.85 5.67Q-24.79 5.67-24.13 5.09Q-23.47 4.51-23.45 3.55L-23.45 3.55L-19.87 3.55Q-19.89 5.00-20.67 6.21Q-21.44 7.41-22.79 8.08Q-24.15 8.75-25.78 8.75L-25.78 8.75Q-28.84 8.75-30.61 6.80Q-32.37 4.86-32.37 1.43L-32.37 1.43L-32.37 1.18Q-32.37-2.12-30.62-4.08Q-28.87-6.05-25.81-6.05L-25.81-6.05Q-23.13-6.05-21.52-4.52Q-19.90-3.00-19.87-0.47L-19.87-0.47L-23.45-0.47Q-23.47-1.58-24.13-2.27Q-24.79-2.96-25.87-2.96L-25.87-2.96Q-27.20-2.96-27.88-1.99Q-28.56-1.02-28.56 1.15L-28.56 1.15L-28.56 1.55Q-28.56 3.75-27.89 4.71Q-27.22 5.67-25.85 5.67ZM-8.85 8.48L-12.52 2.76L-13.89 4.13L-13.89 8.48L-17.70 8.48L-17.70-11.77L-13.89-11.77L-13.89-0.55L-13.15-1.50L-9.50-5.78L-4.92-5.78L-10.08 0.16L-4.48 8.48L-8.85 8.48ZM9.64 8.48L3.70 8.48L3.70-10.71L9.60-10.71Q12.14-10.71 14.13-9.57Q16.13-8.43 17.25-6.33Q18.37-4.23 18.37-1.55L18.37-1.55L18.37-0.67Q18.37 2.01 17.27 4.09Q16.17 6.17 14.17 7.32Q12.16 8.47 9.64 8.48L9.64 8.48ZM9.60-7.51L7.65-7.51L7.65 5.30L9.56 5.30Q11.88 5.30 13.11 3.79Q14.34 2.27 14.36-0.55L14.36-0.55L14.36-1.56Q14.36-4.49 13.15-6.00Q11.94-7.51 9.60-7.51L9.60-7.51ZM27.56 8.75L27.56 8.75Q24.42 8.75 22.45 6.82Q20.48 4.90 20.48 1.69L20.48 1.69L20.48 1.32Q20.48-0.83 21.31-2.52Q22.14-4.21 23.66-5.13Q25.19-6.05 27.14-6.05L27.14-6.05Q30.07-6.05 31.75-4.20Q33.43-2.36 33.43 1.03L33.43 1.03L33.43 2.59L24.34 2.59Q24.53 3.99 25.46 4.83Q26.39 5.67 27.81 5.67L27.81 5.67Q30.01 5.67 31.25 4.08L31.25 4.08L33.12 6.17Q32.27 7.39 30.80 8.07Q29.34 8.75 27.56 8.75ZM27.13-2.96L27.13-2.96Q25.99-2.96 25.29-2.20Q24.58-1.43 24.38-0.01L24.38-0.01L29.68-0.01L29.68-0.31Q29.66-1.58 29.00-2.27Q28.34-2.96 27.13-2.96ZM38.11-5.78L40.76 3.83L43.41-5.78L47.39-5.78L42.58 8.48L38.94 8.48L34.13-5.78L38.11-5.78ZM55.46 8.75L55.46 8.75Q52.32 8.75 50.35 6.82Q48.38 4.90 48.38 1.69L48.38 1.69L48.38 1.32Q48.38-0.83 49.21-2.52Q50.04-4.21 51.56-5.13Q53.08-6.05 55.03-6.05L55.03-6.05Q57.96-6.05 59.64-4.20Q61.32-2.36 61.32 1.03L61.32 1.03L61.32 2.59L52.24 2.59Q52.42 3.99 53.35 4.83Q54.28 5.67 55.71 5.67L55.71 5.67Q57.91 5.67 59.15 4.08L59.15 4.08L61.02 6.17Q60.16 7.39 58.70 8.07Q57.24 8.75 55.46 8.75ZM55.02-2.96L55.02-2.96Q53.89-2.96 53.18-2.20Q52.48-1.43 52.28-0.01L52.28-0.01L57.58-0.01L57.58-0.31Q57.55-1.58 56.89-2.27Q56.23-2.96 55.02-2.96ZM67.51-11.77L67.51 8.48L63.68 8.48L63.68-11.77L67.51-11.77ZM70.05 1.39L70.05 1.22Q70.05-0.90 70.87-2.57Q71.69-4.23 73.22-5.14Q74.76-6.05 76.79-6.05L76.79-6.05Q79.68-6.05 81.50-4.28Q83.33-2.51 83.54 0.52L83.54 0.52L83.56 1.49Q83.56 4.78 81.73 6.76Q79.90 8.75 76.81 8.75Q73.73 8.75 71.89 6.77Q70.05 4.79 70.05 1.39L70.05 1.39ZM73.86 1.49L73.86 1.49Q73.86 3.52 74.63 4.60Q75.39 5.67 76.81 5.67L76.81 5.67Q78.20 5.67 78.98 4.61Q79.75 3.55 79.75 1.22L79.75 1.22Q79.75-0.77 78.98-1.87Q78.20-2.96 76.79-2.96L76.79-2.96Q75.39-2.96 74.63-1.87Q73.86-0.79 73.86 1.49ZM98.75 1.28L98.75 1.48Q98.75 4.78 97.26 6.76Q95.76 8.75 93.21 8.75L93.21 8.75Q91.05 8.75 89.72 7.24L89.72 7.24L89.72 13.97L85.91 13.97L85.91-5.78L89.44-5.78L89.58-4.39Q90.96-6.05 93.19-6.05L93.19-6.05Q95.82-6.05 97.29-4.10Q98.75-2.14 98.75 1.28L98.75 1.28ZM94.94 1.20L94.94 1.20Q94.94-0.79 94.24-1.87Q93.53-2.95 92.19-2.95L92.19-2.95Q90.39-2.95 89.72-1.58L89.72-1.58L89.72 4.26Q90.42 5.67 92.21 5.67L92.21 5.67Q94.94 5.67 94.94 1.20ZM107.68 8.75L107.68 8.75Q104.54 8.75 102.57 6.82Q100.60 4.90 100.60 1.69L100.60 1.69L100.60 1.32Q100.60-0.83 101.43-2.52Q102.26-4.21 103.78-5.13Q105.30-6.05 107.26-6.05L107.26-6.05Q110.18-6.05 111.86-4.20Q113.54-2.36 113.54 1.03L113.54 1.03L113.54 2.59L104.46 2.59Q104.64 3.99 105.57 4.83Q106.50 5.67 107.93 5.67L107.93 5.67Q110.13 5.67 111.37 4.08L111.37 4.08L113.24 6.17Q112.38 7.39 110.92 8.07Q109.46 8.75 107.68 8.75ZM107.24-2.96L107.24-2.96Q106.11-2.96 105.40-2.20Q104.70-1.43 104.50-0.01L104.50-0.01L109.80-0.01L109.80-0.31Q109.77-1.58 109.11-2.27Q108.45-2.96 107.24-2.96ZM123.77-5.88L123.72-2.21Q122.94-2.32 122.35-2.32L122.35-2.32Q120.19-2.32 119.52-0.85L119.52-0.85L119.52 8.48L115.71 8.48L115.71-5.78L119.30-5.78L119.41-4.08Q120.56-6.05 122.59-6.05L122.59-6.05Q123.22-6.05 123.77-5.88L123.77-5.88Z"/></g>
</svg>